<svg width="1578" height="372" viewBox="0 0 1578 372" fill="none" xmlns="http://www.w3.org/2000/svg">
<path fill-rule="evenodd" clip-rule="evenodd" d="M0 87.7389L65.75 79.8427C131.5 71.9466 263 56.1543 394.5 32.4659C526 8.77743 657.5 -22.8071 789 24.5697C920.5 71.9466 1052 198.285 1183.5 229.869C1315 261.454 1446.5 198.285 1512.25 166.7L1578 135.116V372H1512.25C1446.5 372 1315 372 1183.5 372C1052 372 920.5 372 789 372C657.5 372 526 372 394.5 372C263 372 131.5 372 65.75 372H0V87.7389Z" fill="#005EEB"/>
</svg>
